<svg width="45" height="40" viewBox="0 0 45 40" fill="none" xmlns="http://www.w3.org/2000/svg">
<path fill-rule="evenodd" clip-rule="evenodd" d="M14.265 37.8125H26.6253C27.4313 37.8125 27.9688 36.9967 27.9688 36.1808C27.9688 35.365 27.4313 34.8211 26.6253 34.8211H14.265C13.4588 34.8211 12.9214 35.365 12.9214 36.1808C12.9214 36.9967 13.4588 37.8125 14.265 37.8125ZM4.86036 2.1875H36.0298C37.642 2.1875 38.7169 3.54724 38.7169 4.90696V20.9518H2.17334V4.90696C2.17334 3.54724 3.24815 2.1875 4.86036 2.1875ZM38.7169 22.5835V26.3908C38.7169 27.7505 37.642 29.1102 36.0298 29.1102H4.86036C3.24815 29.1102 2.17334 27.7505 2.17334 26.3908V22.5835H38.7169ZM20.4451 24.2152C21.2512 24.2152 22.0573 25.031 22.0573 25.8468C22.0573 26.6627 21.2512 27.4785 20.4451 27.4785C19.639 27.4785 18.8329 26.6627 18.8329 25.8468C18.8329 25.031 19.639 24.2152 20.4451 24.2152Z" stroke="#1A1A1A" stroke-width="4"/>
<path fill-rule="evenodd" clip-rule="evenodd" d="M14.265 37.8125H26.6253C27.4313 37.8125 27.9688 36.9967 27.9688 36.1808C27.9688 35.365 27.4313 34.8211 26.6253 34.8211H14.265C13.4588 34.8211 12.9214 35.365 12.9214 36.1808C12.9214 36.9967 13.4588 37.8125 14.265 37.8125ZM4.86036 2.1875H36.0298C37.642 2.1875 38.7169 3.54724 38.7169 4.90696V20.9518H2.17334V4.90696C2.17334 3.54724 3.24815 2.1875 4.86036 2.1875ZM38.7169 22.5835V26.3908C38.7169 27.7505 37.642 29.1102 36.0298 29.1102H4.86036C3.24815 29.1102 2.17334 27.7505 2.17334 26.3908V22.5835H38.7169ZM20.4451 24.2152C21.2512 24.2152 22.0573 25.031 22.0573 25.8468C22.0573 26.6627 21.2512 27.4785 20.4451 27.4785C19.639 27.4785 18.8329 26.6627 18.8329 25.8468C18.8329 25.031 19.639 24.2152 20.4451 24.2152Z" fill="white"/>
<path fill-rule="evenodd" clip-rule="evenodd" d="M37.9107 20.136C41.9412 20.136 44.897 23.3994 44.897 27.4785C44.897 31.5577 41.9412 34.8211 37.9107 34.8211C33.8801 34.8211 30.6558 31.5577 30.6558 27.4785C30.6558 23.3994 33.8801 20.136 37.9107 20.136Z" fill="#DB292F" fill-opacity="0.701961"/>
</svg>
