<svg width="29" height="37" viewBox="0 0 29 37" fill="none" xmlns="http://www.w3.org/2000/svg">
<path fill-rule="evenodd" clip-rule="evenodd" d="M11.8664 33.8206L12.775 35.4432L13.5976 33.9334V33.8394V33.7078H13.7265H13.7449C13.8493 33.5199 14.0764 33.0939 14.4325 32.4423C14.8253 31.7219 15.3349 30.7884 15.8874 29.7798L15.8935 29.761C16.1882 29.2348 16.5258 28.6271 16.8819 27.9881C17.2195 27.3678 17.5756 26.7288 17.9255 26.0898C18.5455 24.9622 19.1594 23.847 19.7426 22.8071C20.3012 21.8047 20.7923 20.9276 21.1668 20.2886L21.1729 20.2823C21.3203 20.0192 21.4676 19.731 21.6149 19.4178C21.7623 19.1046 21.9096 18.7725 22.0508 18.4154C22.192 18.0583 22.327 17.695 22.4498 17.3128C22.5787 16.9432 22.6954 16.561 22.7997 16.1789L22.812 16.1413C22.9041 15.8155 22.99 15.4835 23.0637 15.1515C23.1374 14.8194 23.1987 14.4874 23.2479 14.1616C23.297 13.8421 23.3338 13.5226 23.3645 13.2094C23.3891 12.9024 23.4013 12.6017 23.4013 12.3072C23.4013 11.5868 23.3277 10.8851 23.1987 10.2085C23.0637 9.51312 22.8672 8.83652 22.6033 8.19751C22.3393 7.53344 22.0139 6.90696 21.6333 6.31806C21.2589 5.72917 20.8291 5.18413 20.3503 4.67668L20.3258 4.65789C19.8285 4.15044 19.2883 3.6931 18.7051 3.29842C18.128 2.90374 17.508 2.56544 16.8573 2.28979C16.2189 2.0204 15.5497 1.81366 14.856 1.66957C14.1808 1.53174 13.4871 1.46283 12.775 1.46283C12.0629 1.46283 11.3692 1.53174 10.6877 1.66957C10.0002 1.81366 9.33106 2.0204 8.69262 2.29605C8.0419 2.5717 7.43415 2.91 6.86324 3.30469C6.29232 3.6931 5.76438 4.14417 5.28555 4.64536L5.27941 4.65789C4.78216 5.16534 4.33402 5.71664 3.94728 6.30553C3.56053 6.89443 3.22903 7.52091 2.95892 8.17871C2.69495 8.82399 2.49237 9.50059 2.35117 10.196C2.22226 10.8788 2.14859 11.5868 2.14859 12.3072C2.14859 12.5891 2.16701 12.8899 2.19156 13.1906C2.21612 13.4975 2.25295 13.8108 2.30206 14.124C2.35731 14.4373 2.4187 14.7568 2.49237 15.07C2.56603 15.3833 2.65198 15.6965 2.74406 16.0035L2.7502 16.0097C2.84228 16.3668 2.95278 16.7239 3.06942 17.0685V17.0748C3.1922 17.4381 3.32725 17.8015 3.46845 18.1523C3.61578 18.5219 3.77539 18.8853 3.92886 19.2173C4.09461 19.5807 4.2665 19.919 4.43839 20.2322C4.7085 20.7459 5.08297 21.4476 5.52496 22.262C5.99766 23.1328 6.56857 24.1728 7.17632 25.2817C7.84545 26.497 8.53301 27.7437 9.17145 28.8965C9.82217 30.0617 10.4483 31.1831 10.9824 32.1354L10.9886 32.1416V32.1479L11.8603 33.8143L11.8664 33.8206Z" fill="white"/>
<path fill-rule="evenodd" clip-rule="evenodd" d="M6.35373 5.54746C6.77732 5.11519 7.24387 4.72051 7.74726 4.37594C8.23837 4.03764 8.77245 3.7432 9.33108 3.50513C9.8713 3.26707 10.4422 3.08539 11.0254 2.96636C11.5963 2.84733 12.1795 2.78468 12.775 2.78468H12.7873H12.7934C13.1003 2.79721 13.395 2.82853 13.6897 2.85986C13.9782 2.89745 14.2667 2.94756 14.5553 3.01021C14.8438 3.0666 15.1262 3.14177 15.4086 3.22322C15.6848 3.30466 15.9611 3.39863 16.2434 3.49887L16.2496 3.50513L16.2557 3.5114C16.5258 3.63043 16.7837 3.76199 17.0354 3.89982C17.2932 4.04391 17.5449 4.20053 17.7904 4.36968C18.036 4.53883 18.2815 4.72051 18.5148 4.91472C18.7481 5.11519 18.9752 5.32193 19.1962 5.54746C19.3988 5.7542 19.5891 5.96721 19.7733 6.199C19.9575 6.4308 20.1293 6.67513 20.289 6.91946C20.4547 7.17631 20.6082 7.43944 20.7432 7.70882C20.8844 7.97821 21.0195 8.26013 21.1361 8.55457L21.1423 8.56084C21.2589 8.83023 21.3571 9.10588 21.4369 9.38779C21.5229 9.66971 21.5904 9.96416 21.6395 10.2586C21.6948 10.5531 21.7316 10.8475 21.7561 11.1482C21.7807 11.4427 21.7868 11.7434 21.7868 12.0441C21.7868 12.2821 21.7746 12.5453 21.75 12.8209C21.7255 13.1091 21.6825 13.3973 21.6334 13.698C21.5843 14.005 21.5229 14.3182 21.4492 14.6314C21.3755 14.9447 21.2957 15.2579 21.2036 15.5649L21.1791 15.6463C21.087 15.9784 20.9826 16.3104 20.8783 16.6237C20.7617 16.9682 20.6389 17.3003 20.5161 17.626C20.3872 17.9518 20.2583 18.2588 20.1355 18.5344C20.0066 18.8101 19.8777 19.0669 19.7487 19.305V19.3113C19.5523 19.6496 19.3067 20.0818 19.0244 20.583C18.7297 21.1155 18.4166 21.6731 18.1035 22.2307C17.7413 22.8947 17.3914 23.5212 17.0538 24.1289C16.8144 24.5674 16.4031 25.3067 15.9058 26.2151C15.3472 27.2237 14.8683 28.1071 14.4202 28.9215V28.934C14.1869 29.3538 13.9659 29.7672 13.7511 30.1557C13.5546 30.519 13.352 30.8824 13.1495 31.252L13.1433 31.2583L12.9714 31.5527L12.8855 31.6968L12.775 31.891L12.6645 31.6968L12.5785 31.5527L12.4067 31.2583H12.4005C12.3023 31.0766 12.1979 30.8824 12.0874 30.6882L12.0138 30.5503H12.0076C11.0745 28.8714 9.88972 26.7413 8.84611 24.7554L8.83997 24.7491C8.18312 23.5337 7.5324 22.356 6.9799 21.3536C6.75276 20.9401 6.54404 20.5642 6.35987 20.2197C6.16957 19.8814 6.00382 19.5681 5.85649 19.2987L5.7951 19.186C5.66004 18.9354 5.53113 18.6723 5.39607 18.3966C5.24874 18.0834 5.10754 17.7576 4.97249 17.4256C4.84357 17.106 4.7208 16.774 4.60416 16.4357C4.4998 16.1475 4.40771 15.8531 4.32177 15.5524L4.28494 15.4459C4.19285 15.1326 4.11305 14.8131 4.03324 14.4999C3.96572 14.1929 3.90433 13.8985 3.85522 13.6103C3.80611 13.3346 3.76927 13.059 3.73858 12.7896C3.71402 12.5265 3.70174 12.2759 3.70174 12.0441C3.70174 11.4427 3.76313 10.86 3.87363 10.2899C3.99641 9.69477 4.1683 9.13094 4.3893 8.5859C4.61644 8.02833 4.89268 7.50209 5.21191 7.0009C5.53113 6.50598 5.89332 6.04238 6.28621 5.62264V5.61638L6.32304 5.57879L6.35373 5.54746ZM11.8235 34.4784L12.775 36.1699C13.3582 35.1299 13.9352 34.09 14.5 33.0437C14.9113 32.292 15.4393 31.3147 16.0224 30.2622L16.0286 30.2496C16.3355 29.6983 16.6854 29.0656 17.0538 28.3952C17.416 27.75 17.7782 27.0796 18.1465 26.4218C18.7972 25.2378 19.4357 24.0788 20.0434 22.9887C20.6205 21.9488 21.1361 21.0341 21.529 20.37L21.5351 20.3575C21.6886 20.0881 21.8421 19.7811 21.9956 19.4616C22.149 19.1358 22.3025 18.785 22.4498 18.4091C22.591 18.0458 22.7322 17.6574 22.8673 17.2627C22.9962 16.8743 23.119 16.4796 23.2356 16.0786L23.2418 16.0473V16.041C23.34 15.6965 23.4259 15.3582 23.5057 15.0136C23.5794 14.6628 23.6469 14.3182 23.7022 13.9736C23.7513 13.6479 23.7881 13.3158 23.8188 12.9838C23.8434 12.6643 23.8556 12.3511 23.8556 12.0378C23.8556 11.2923 23.782 10.5656 23.6469 9.85766C23.5057 9.13094 23.297 8.42301 23.0269 7.75268C22.7506 7.06981 22.413 6.41201 22.014 5.79806C21.6211 5.1841 21.173 4.61401 20.6757 4.08776L20.6512 4.0627C20.1355 3.53646 19.5707 3.06033 18.963 2.64685C18.3552 2.23964 17.7106 1.88255 17.0354 1.60063C16.3662 1.31871 15.6664 1.09944 14.9481 0.949088C14.2422 0.811262 13.5178 0.736084 12.775 0.736084C12.0322 0.736084 11.3078 0.811262 10.6018 0.955353C9.87744 1.09944 9.18375 1.31871 8.51461 1.60063C7.83934 1.88881 7.2009 2.23964 6.60543 2.65312C6.0161 3.06033 5.4636 3.53019 4.96635 4.05017V4.05644L4.96021 4.0627C4.43841 4.59521 3.97185 5.17157 3.56669 5.78553C3.16152 6.39948 2.81775 7.05102 2.53536 7.74015C2.25911 8.41048 2.05039 9.11214 1.9092 9.84513C1.768 10.5531 1.69434 11.286 1.69434 12.0378C1.69434 12.3385 1.70661 12.6455 1.73731 12.965C1.76186 13.2845 1.80484 13.6103 1.85395 13.9361C1.9092 14.2681 1.97672 14.6001 2.05039 14.9259C2.1302 15.2517 2.21614 15.5774 2.31436 15.8969L2.3205 15.9032C2.41872 16.2791 2.52922 16.6487 2.652 17.0121C2.78092 17.4005 2.92211 17.7764 3.06944 18.1397C3.22291 18.5282 3.38866 18.9041 3.54827 19.2486C3.7263 19.6308 3.90433 19.9816 4.07622 20.3074C4.3586 20.8461 4.75149 21.5791 5.21191 22.4249C5.70915 23.3333 6.30462 24.4171 6.93693 25.5761C7.63676 26.8416 8.355 28.1447 9.018 29.3412C9.69328 30.5629 10.3501 31.7344 10.9088 32.7242V32.7305L10.9149 32.7368L11.8235 34.4721V34.4784Z" fill="#1A1A1A"/>
<path fill-rule="evenodd" clip-rule="evenodd" d="M20.9827 17.1938C24.8318 17.1938 27.9319 20.3575 27.9319 24.2856C27.9319 28.1509 24.8318 31.3147 20.9827 31.3147C17.195 31.3147 14.0949 28.1509 14.0949 24.2856C14.0949 20.3575 17.195 17.1938 20.9827 17.1938Z" fill="#DB292F" fill-opacity="0.701961"/>
<path fill-rule="evenodd" clip-rule="evenodd" d="M12.775 6.67511C15.6787 6.67511 18.0298 9.0808 18.0298 12.0378C18.0298 15.001 15.6787 17.4005 12.775 17.4005C9.8713 17.4005 7.52011 15.001 7.52011 12.0378C7.52011 9.0808 9.8713 6.67511 12.775 6.67511ZM12.775 8.7237C14.5737 8.7237 16.0286 10.2085 16.0286 12.0378C16.0286 13.8734 14.5737 15.3581 12.775 15.3581C10.9824 15.3581 9.52138 13.8734 9.52138 12.0378C9.52138 10.2085 10.9824 8.7237 12.775 8.7237Z" fill="#1A1A1A"/>
</svg>
