<svg width="40" height="40" viewBox="0 0 40 40" fill="none" xmlns="http://www.w3.org/2000/svg">
<path d="M40 20H36.9697V19.0909V18.1818L36.6667 17.5758V16.6667L36.3636 15.7576V14.8485L36.0606 14.2424L35.7576 13.3333L35.4545 12.7273L34.8485 11.8182L34.5455 11.2121L33.9394 10.6061L33.6364 9.69697L33.0303 9.09091L32.4242 8.48485L32.1212 7.87879L31.5152 7.27273L30.9091 6.9697L30 6.36364L29.3939 5.75758L28.7879 5.45455L28.1818 5.15152L27.2727 4.54545L26.6667 4.24242L25.7576 3.93939L25.1515 3.63636H24.2424L23.3333 3.33333H22.4242L21.8182 3.0303H20.9091H20V0H20.9091L22.1212 0.30303H23.0303L23.9394 0.606061H24.8485L25.7576 0.909091L26.6667 1.21212L27.5758 1.51515L28.4848 2.12121L29.3939 2.42424L30.303 3.0303L31.2121 3.33333L31.8182 3.93939L32.7273 4.54545L33.3333 5.15152L33.9394 6.06061L34.8485 6.66667L35.4545 7.27273L36.0606 8.18182L36.3636 8.78788L36.9697 9.69697L37.5758 10.6061L37.8788 11.5152L38.4848 12.1212L38.7879 13.0303L39.0909 14.2424L39.3939 15.1515V16.0606L39.697 16.9697V17.8788L40 19.0909V20ZM20 40V36.9697H20.9091H21.8182H22.4242L23.3333 36.6667H24.2424L25.1515 36.3636L25.7576 36.0606L26.6667 35.7576L27.2727 35.4545L28.1818 35.1515L28.7879 34.5455L29.3939 34.2424L30 33.6364L30.9091 33.0303L31.5152 32.7273L32.1212 32.1212L32.4242 31.5152L33.0303 30.9091L33.6364 30.303L33.9394 29.697L34.5455 28.7879L34.8485 28.1818L35.4545 27.2727L35.7576 26.6667L36.0606 25.7576L36.3636 25.1515V24.2424L36.6667 23.3333V22.7273L36.9697 21.8182V20.9091V20H40V20.9091L39.697 22.1212V23.0303L39.3939 23.9394V25.1515L39.0909 26.0606L38.7879 26.9697L38.4848 27.8788L37.8788 28.7879L37.5758 29.697L36.9697 30.303L36.3636 31.2121L36.0606 32.1212L35.4545 32.7273L34.8485 33.3333L33.9394 34.2424L33.3333 34.8485L32.7273 35.4545L31.8182 36.0606L31.2121 36.6667L30.303 36.9697L29.3939 37.5758L28.4848 37.8788L27.5758 38.4848L26.6667 38.7879L25.7576 39.0909L24.8485 39.3939L23.9394 39.697H23.0303L22.1212 40H20.9091H20ZM0 20H3.0303V20.9091V21.8182V22.7273L3.33333 23.3333V24.2424L3.63636 25.1515L3.93939 25.7576L4.24242 26.6667L4.54545 27.2727L4.84848 28.1818L5.45455 28.7879L5.75758 29.697L6.36364 30.303L6.66667 30.9091L7.27273 31.5152L7.87879 32.1212L8.48485 32.7273L9.09091 33.0303L9.69697 33.6364L10.303 34.2424L11.2121 34.5455L11.8182 35.1515L12.4242 35.4545L13.3333 35.7576L13.9394 36.0606L14.8485 36.3636L15.7576 36.6667H16.3636L17.2727 36.9697H18.1818H19.0909H20V40H18.7879H17.8788L16.9697 39.697H16.0606L14.8485 39.3939L13.9394 39.0909L13.0303 38.7879L12.1212 38.4848L11.2121 37.8788L10.303 37.5758L9.69697 36.9697L8.78788 36.6667L7.87879 36.0606L7.27273 35.4545L6.66667 34.8485L5.75758 34.2424L5.15152 33.3333L4.54545 32.7273L3.93939 32.1212L3.33333 31.2121L2.72727 30.303L2.42424 29.697L1.81818 28.7879L1.51515 27.8788L1.21212 26.9697L0.909091 26.0606L0.606061 25.1515L0.30303 23.9394V23.0303L0 22.1212V20.9091V20ZM20 0V3.0303H19.0909H18.1818L17.2727 3.33333H16.3636L15.7576 3.63636H14.8485L13.9394 3.93939L13.3333 4.24242L12.4242 4.54545L11.8182 5.15152L11.2121 5.45455L10.303 5.75758L9.69697 6.36364L9.09091 6.9697L8.48485 7.27273L7.87879 7.87879L7.27273 8.48485L6.66667 9.09091L6.36364 9.69697L5.75758 10.6061L5.45455 11.2121L4.84848 11.8182L4.54545 12.7273L4.24242 13.3333L3.93939 14.2424L3.63636 14.8485L3.33333 15.7576V16.6667L3.0303 17.5758V18.1818V19.0909V20H0V19.0909V17.8788L0.30303 16.9697V16.0606L0.606061 15.1515L0.909091 14.2424L1.21212 13.0303L1.51515 12.1212L1.81818 11.5152L2.42424 10.6061L2.72727 9.69697L3.33333 8.78788L3.93939 8.18182L4.54545 7.27273L5.15152 6.66667L5.75758 6.06061L6.66667 5.15152L7.27273 4.54545L7.87879 3.93939L8.78788 3.33333L9.69697 3.0303L10.303 2.42424L11.2121 2.12121L12.1212 1.51515L13.0303 1.21212L13.9394 0.909091L14.8485 0.606061H16.0606L16.9697 0.30303H17.8788L18.7879 0H20Z" fill="#DB2C32"/>
<path fill-rule="evenodd" clip-rule="evenodd" d="M20 12.1212C25.4545 12.1212 29.697 16.3636 29.697 21.8182C29.697 27.2727 25.4545 31.8182 20 31.8182C14.5455 31.8182 10 27.2727 10 21.8182C10 16.3636 14.5455 12.1212 20 12.1212ZM20 16.6667L21.5152 20L25.1515 20.303L22.4242 23.0303L23.0303 26.3636L19.697 24.5455L16.6667 26.3636L17.5758 22.7273L14.8485 20.303L18.4848 19.697L20 16.6667Z" fill="#DB2C32"/>
<path fill-rule="evenodd" clip-rule="evenodd" d="M7.87878 6.06061L14.2424 2.12122L19.0909 10.303C16.3636 10.6061 13.9394 11.5152 11.8182 13.3333L7.87878 6.06061Z" fill="#DB2C32"/>
<path fill-rule="evenodd" clip-rule="evenodd" d="M32.4243 5.75757L25.4546 2.42424L20.9091 10.303C23.6364 10.6061 26.0606 11.5151 27.8788 13.3333L32.4243 5.75757Z" fill="#DB2C32"/>
</svg>
