<svg width="44" height="44" viewBox="0 0 44 44" fill="none" xmlns="http://www.w3.org/2000/svg">
<path d="M22 7.90164C23.9672 8.22951 25.6066 8.55738 27.2459 9.21312C28.8853 9.86885 30.5246 10.8525 31.8361 12.1639C34.1312 14.7869 35.7705 18.0656 35.7705 22C35.7705 23.9672 35.4427 25.6066 34.7869 27.2459C34.1312 28.8852 33.1476 30.5246 31.8361 31.8361C30.5246 33.1475 28.8853 34.1311 27.2459 34.7869C25.6066 35.7705 23.9672 36.0984 22 36.0984H21.6722C19.705 36.0984 18.0656 35.4426 16.4263 34.7869C14.7869 34.1311 13.1476 33.1475 11.8361 31.8361C10.5246 30.5246 9.54102 29.2131 8.88528 27.2459C8.22954 25.6066 7.90167 23.9672 7.90167 22C7.90167 20.0328 8.22954 18.3934 8.88528 16.7541C9.54102 15.1148 10.5246 13.4754 11.8361 12.1639L12.164 11.8361C13.4754 10.5246 14.7869 9.86885 16.4263 9.21312C18.0656 8.55738 19.705 7.90164 21.6722 7.90164H22ZM25.2787 10.8525C25.6066 11.1803 25.9345 11.5082 25.9345 11.8361C26.5902 12.8197 26.9181 13.4754 27.2459 14.459V15.1148H31.5082L31.1804 14.7869C30.8525 14.459 30.5246 14.1311 30.1968 13.8033C29.541 12.8197 28.5574 12.1639 27.5738 11.5082C26.5902 11.1803 25.9345 10.8525 25.2787 10.8525ZM32.8197 17.4098H27.9017C27.9017 18.0656 28.2295 18.3934 28.2295 19.0492C28.2295 19.7049 28.2295 20.3607 28.2295 21.0164H33.8033C33.4754 20.3607 33.4754 19.7049 33.4754 19.0492C33.1476 18.7213 33.1476 18.0656 32.8197 17.4098ZM33.8033 22.9836H28.2295C28.2295 23.6393 28.2295 24.2951 28.2295 24.9508C28.2295 25.6066 27.9017 26.2623 27.9017 26.5902H32.8197C33.1476 26.2623 33.1476 25.6066 33.4754 24.9508C33.4754 24.2951 33.4754 23.6393 33.8033 22.9836ZM31.5082 28.8852H27.2459V29.2131V29.541C26.9181 30.5246 26.5902 31.1803 25.9345 32.1639C25.9345 32.4918 25.6066 32.8197 25.2787 33.4754C25.9345 33.1475 26.5902 32.8197 27.5738 32.4918C28.5574 31.8361 29.541 31.1803 30.1968 30.5246V30.1967C30.5246 29.8689 30.8525 29.541 31.1804 29.2131L31.5082 28.8852ZM18.3935 33.4754C18.0656 32.8197 18.0656 32.4918 17.7377 32.1639C17.4099 31.1803 16.7541 30.5246 16.4263 29.541V29.2131V28.8852H12.164L12.4918 29.2131C12.8197 29.8689 13.1476 30.1967 13.4754 30.5246C14.459 31.1803 15.1148 31.8361 16.4263 32.4918C17.082 32.8197 17.7377 33.1475 18.3935 33.4754ZM10.8525 26.5902H15.7705C15.7705 26.2623 15.4427 25.6066 15.4427 24.9508C15.4427 24.2951 15.4427 23.6393 15.4427 22.9836H10.1968C10.1968 23.6393 10.1968 24.2951 10.5246 24.9508C10.5246 25.6066 10.8525 26.2623 10.8525 26.5902ZM10.1968 21.0164H15.4427C15.4427 20.3607 15.4427 19.7049 15.4427 19.0492C15.4427 18.3934 15.7705 18.0656 15.7705 17.4098H10.8525C10.8525 18.0656 10.5246 18.7213 10.5246 19.0492C10.1968 19.7049 10.1968 20.3607 10.1968 21.0164ZM12.164 15.1148H16.4263V14.459C16.7541 13.4754 17.4099 12.8197 17.7377 11.8361C18.0656 11.5082 18.0656 11.1803 18.3935 10.8525C17.7377 10.8525 17.082 11.1803 16.4263 11.5082C15.4427 12.1639 14.459 12.8197 13.4754 13.4754V13.8033C13.1476 14.1311 12.8197 14.459 12.4918 14.7869L12.164 15.1148ZM18.0656 26.5902H20.6886V22.9836H17.4099C17.4099 23.6393 17.7377 24.2951 17.7377 24.9508C17.7377 25.6066 17.7377 26.2623 18.0656 26.5902ZM22.9836 26.5902H25.6066C25.9345 26.2623 25.9345 25.6066 25.9345 24.9508C26.2623 24.2951 26.2623 23.6393 26.2623 22.9836H22.9836V26.5902ZM24.9509 28.8852H22.9836V32.8197C23.3115 32.4918 23.6394 32.1639 23.9672 31.5082C24.2951 30.8525 24.623 29.8689 24.9509 28.8852ZM20.6886 28.8852H18.7213C19.0492 29.8689 19.3771 30.8525 20.0328 31.5082C20.0328 32.1639 20.3607 32.4918 20.6886 32.8197V28.8852ZM18.7213 15.1148H20.6886V11.1803C20.3607 11.5082 20.0328 11.8361 20.0328 12.4918C19.3771 13.1475 19.0492 14.1311 18.7213 15.1148ZM22.9836 15.1148H24.9509C24.623 14.1311 24.2951 13.1475 23.9672 12.4918C23.6394 11.8361 23.3115 11.5082 22.9836 11.1803V15.1148ZM25.6066 17.4098H22.9836V21.0164H26.2623C26.2623 20.3607 26.2623 19.7049 25.9345 19.0492C25.9345 18.7213 25.9345 18.0656 25.6066 17.4098ZM20.6886 17.4098H18.0656C17.7377 18.0656 17.7377 18.7213 17.7377 19.0492C17.7377 19.7049 17.4099 20.3607 17.4099 21.0164H20.6886V17.4098Z" fill="#DB2C32"/>
<path d="M22 42C33.0457 42 42 33.0457 42 22C42 10.9543 33.0457 2 22 2C10.9543 2 2 10.9543 2 22C2 33.0457 10.9543 42 22 42Z" stroke="#DB2C32" stroke-width="4"/>
</svg>
