<svg width="44" height="44" viewBox="0 0 44 44" fill="none" xmlns="http://www.w3.org/2000/svg">
<path d="M22 42C33.0457 42 42 33.0457 42 22C42 10.9543 33.0457 2 22 2C10.9543 2 2 10.9543 2 22C2 33.0457 10.9543 42 22 42Z" stroke="#DB2C32" stroke-width="4"/>
<path fill-rule="evenodd" clip-rule="evenodd" d="M13.1476 12.8197L11.5082 11.8361C11.5082 11.8361 11.5082 11.8361 11.1803 11.8361L5.60657 21.6721C5.60657 22 5.60657 22 5.60657 22L7.24591 22.9836H7.57378L13.1476 13.1476C13.1476 12.8197 13.1476 12.8197 13.1476 12.8197Z" fill="#DB292F"/>
<path fill-rule="evenodd" clip-rule="evenodd" d="M32.1639 11.8361L30.5246 12.8197C30.5246 12.8197 30.5246 12.8197 30.5246 13.1476L36.0984 22.9836C36.4262 22.9836 36.4262 22.9836 36.4262 22.9836L38.0656 22C38.0656 22 38.0656 22 38.3934 22C38.3934 22 38.3934 22 38.0656 21.6721L32.4918 11.8361H32.1639Z" fill="#DB292F"/>
<path fill-rule="evenodd" clip-rule="evenodd" d="M30.1967 15.1148C29.541 15.4426 28.2295 15.7705 26.2623 15.4426C23.9672 14.7869 19.377 13.8033 18.3934 16.0984C18.0656 16.7541 17.4098 17.4098 17.0819 18.0656C16.7541 19.0492 16.4262 19.3771 16.4262 19.7049C16.7541 19.7049 17.0819 19.7049 17.4098 19.3771C18.0656 19.3771 18.7213 18.7213 19.0492 18.7213C19.0492 18.3934 19.0492 18.3934 19.0492 18.3934C20.0328 17.7377 21.6721 16.0984 24.2951 18.0656C25.6065 19.3771 27.5737 20.6885 29.541 22C30.8524 22.9836 31.836 23.6393 32.1639 23.6393C32.1639 23.6393 32.1639 23.6393 32.8197 23.3115C33.1475 22.9836 33.4754 22.6557 34.1311 21.6721L30.1967 15.1148Z" fill="#DB292F"/>
<path fill-rule="evenodd" clip-rule="evenodd" d="M16.7541 16.4262C15.1147 16.0984 14.1311 15.7705 13.4754 15.1148L9.54095 21.6721C10.1967 22 10.8524 22.6557 11.836 23.6394C12.1639 23.3115 12.4918 23.3115 12.8196 23.3115C13.1475 23.3115 13.4754 23.3115 13.8032 23.3115L14.1311 23.6394L14.459 23.9672L15.4426 22.9836C15.7705 22.6557 16.0983 22.3279 16.4262 22.3279C17.0819 22.3279 17.4098 22.3279 17.7377 22.6557H18.0655C18.3934 22.9836 18.3934 23.3115 18.7213 23.9672C18.7213 24.2951 18.7213 24.2951 18.3934 24.623C18.7213 24.9508 19.0492 24.9508 19.377 24.9508C19.7049 25.2787 20.0328 25.9344 20.0328 26.2623C20.0328 26.5902 20.0328 26.918 20.0328 27.2459C20.0328 27.2459 20.3606 27.2459 20.6885 27.5738C21.0164 27.9016 21.3442 28.2295 21.3442 28.5574C21.3442 29.2131 21.3442 29.541 21.0164 30.1967L20.6885 30.5246V30.8525C23.6393 32.1639 24.6229 31.5082 24.9508 30.8525C23.3114 30.1967 22 29.2131 22 29.2131C21.6721 29.2131 21.3442 28.8853 21.6721 28.5574C21.6721 28.2295 22 28.2295 22.3278 28.2295C22.3278 28.2295 24.2951 29.2131 25.9344 29.8689C27.2459 30.1967 27.5737 29.541 27.5737 28.8853L22.9836 26.5902C22.6557 26.2623 22.6557 25.9344 22.9836 25.6066C22.9836 25.2787 23.3114 25.2787 23.6393 25.6066L28.2295 28.2295C29.541 28.2295 29.541 27.5738 29.8688 26.918L24.6229 23.9672C24.2951 23.9672 24.2951 23.6394 24.2951 23.3115C24.6229 22.9836 24.9508 22.9836 25.2787 22.9836L30.5246 26.2623C30.8524 26.2623 31.1803 26.2623 31.5082 26.2623C31.5082 25.9344 31.5082 25.9344 31.836 25.9344V25.6066C31.836 25.2787 31.836 24.9508 31.836 24.9508C31.5082 24.9508 30.1967 23.9672 28.8852 22.9836C26.918 21.6721 24.9508 20.0328 23.3114 19.0492C21.6721 17.7377 20.6885 18.7213 20.0328 19.3771H19.7049C19.377 19.7049 18.3934 20.3607 17.7377 20.6885C17.4098 20.6885 17.0819 21.0164 16.7541 21.0164C16.0983 21.0164 15.7705 21.0164 15.4426 20.6885C15.4426 20.3607 15.4426 20.3607 15.1147 20.3607C14.7869 19.3771 15.4426 18.7213 16.0983 17.4098C16.4262 17.082 16.7541 16.7541 16.7541 16.4262ZM16.4262 27.9016C16.7541 28.2295 17.0819 28.5574 17.4098 28.5574L18.0655 27.9016L18.7213 26.918V26.5902C18.7213 26.2623 18.7213 26.2623 18.7213 25.9344C18.3934 25.9344 18.0655 25.9344 18.0655 25.9344C17.7377 25.9344 17.7377 25.9344 17.7377 26.2623H17.4098L17.0819 26.5902L16.4262 27.9016ZM18.3934 29.2131C18.7213 29.541 19.0492 29.8689 19.7049 30.1967L20.0328 29.541C20.0328 29.2131 20.3606 29.2131 20.0328 28.8853V28.5574C19.7049 28.2295 19.7049 28.2295 19.377 28.2295L19.0492 28.5574L18.3934 29.2131ZM12.4918 24.623C12.8196 24.9508 13.1475 25.2787 13.4754 25.2787C13.8032 25.2787 13.8032 25.2787 13.8032 24.9508C13.4754 24.9508 13.4754 24.623 13.4754 24.623C13.1475 24.2951 13.1475 24.2951 12.8196 24.2951C12.8196 24.2951 12.8196 24.2951 12.4918 24.623Z" fill="#DB292F"/>
<path fill-rule="evenodd" clip-rule="evenodd" d="M13.8033 24.9508C13.4754 24.9508 13.4754 24.623 13.4754 24.623C13.1476 24.2951 13.1476 24.2951 12.8197 24.2951L12.4918 24.623L10.8525 26.5902C10.8525 26.918 10.8525 27.2459 10.8525 27.2459C10.8525 27.5738 10.8525 27.5738 11.1803 27.5738C11.1803 27.9016 11.5082 27.9016 11.5082 27.9016C11.8361 27.9016 11.8361 27.5738 12.164 27.5738L13.4754 25.6066C13.8033 25.2787 13.8033 25.2787 13.8033 24.9508Z" fill="#DB292F"/>
<path fill-rule="evenodd" clip-rule="evenodd" d="M18.7213 26.5902C18.7213 26.2623 18.7213 26.2623 18.7213 25.9344C18.3934 25.9344 18.0656 25.9344 18.0656 25.9344C17.7377 25.9344 17.7377 25.9344 17.7377 26.2623H17.4098L15.1147 29.8689C14.7869 29.8689 14.7869 30.1967 14.7869 30.1967C14.7869 30.5246 15.1147 30.5246 15.1147 30.5246C15.4426 30.8525 15.4426 30.8525 15.7705 30.8525L16.0983 30.5246L18.7213 26.918V26.5902Z" fill="#DB292F"/>
<path fill-rule="evenodd" clip-rule="evenodd" d="M20.0328 28.8852V28.5574C19.7049 28.2295 19.7049 28.2295 19.377 28.2295L19.0492 28.5574L17.0819 31.1803C17.0819 31.5082 16.7541 31.5082 17.0819 31.8361V32.1639C17.4098 32.1639 17.4098 32.1639 17.7377 32.1639H18.0655L20.0328 29.541C20.0328 29.2131 20.3606 29.2131 20.0328 28.8852Z" fill="#DB292F"/>
<path fill-rule="evenodd" clip-rule="evenodd" d="M17.4098 23.9672C17.4098 23.9672 17.4098 23.6393 17.0819 23.6393C17.0819 23.6393 16.7541 23.3115 16.7541 23.6393C16.4262 23.6393 16.4262 23.6393 16.0983 23.6393L13.1475 28.2295H12.8196C12.8196 28.2295 12.8196 28.5574 12.8196 28.8852C12.8196 28.8852 12.8196 29.2131 13.1475 29.2131H13.4754C13.8032 29.2131 13.8032 29.2131 14.1311 28.8852L17.4098 24.6229C17.4098 24.2951 17.4098 24.2951 17.4098 23.9672Z" fill="#DB292F"/>
</svg>
