<svg width="40" height="41" viewBox="0 0 40 41" fill="none" xmlns="http://www.w3.org/2000/svg">
<path d="M40 20.1527H37.2519V19.2366L36.9466 18.3206V17.7099L36.6412 16.7939V15.8779L36.3359 14.9618L36.0305 14.3511L35.7252 13.4351L35.4198 12.8244L35.1145 11.9084L34.5038 11.2977L34.1985 10.687L33.5878 9.77099L33.2824 9.16031L32.6718 8.54962L32.0611 7.93893L31.4504 7.32824L30.8397 7.0229L30.229 6.41221L29.6183 5.80153L29.0076 5.49618L28.0916 5.19084L27.4809 4.58015L26.5649 4.27481L25.9542 3.96947L25.0382 3.66412H24.1221L23.5115 3.35878H22.5954L21.6794 3.05344H20.7634H19.8473V0H21.0687L21.9847 0.305344H22.9008L24.1221 0.610687H25.0382L25.9542 0.916031L26.8702 1.22137L27.7863 1.52672L28.7023 2.1374L29.6183 2.44275L30.5344 3.05344L31.145 3.35878L32.0611 3.96947L32.6718 4.58015L33.5878 5.19084L34.1985 6.10687L34.8092 6.71756L35.4198 7.32824L36.0305 8.24427L36.6412 8.85496L37.2519 9.77099L37.5573 10.687L38.1679 11.6031L38.4733 12.2137L38.7786 13.1298L39.084 14.3511L39.3893 15.2672L39.6947 16.1832L40 17.0992V18.0153V19.2366V20.1527ZM19.8473 40.3053V37.2519H20.7634H21.6794H22.5954L23.5115 36.9466H24.1221L25.0382 36.6412L25.9542 36.3359L26.5649 36.0305L27.4809 35.7252L28.0916 35.4198L29.0076 34.8092L29.6183 34.5038L30.229 33.8931L30.8397 33.2824L31.4504 32.9771L32.0611 32.3664L32.6718 31.7557L33.2824 31.145L33.5878 30.5344L34.1985 29.9237L34.5038 29.0076L35.1145 28.3969L35.4198 27.4809L35.7252 26.8702L36.0305 25.9542L36.3359 25.3435L36.6412 24.4275V23.5115L36.9466 22.9008V21.9847L37.2519 21.0687V20.1527H40V21.0687V22.2901V23.2061L39.6947 24.1221L39.3893 25.3435L39.084 26.2595L38.7786 27.1756L38.4733 28.0916L38.1679 29.0076L37.5573 29.9237L37.2519 30.5344L36.6412 31.4504L36.0305 32.3664L35.4198 32.9771L34.8092 33.5878L34.1985 34.5038L33.5878 35.1145L32.6718 35.7252L32.0611 36.3359L31.145 36.9466L30.5344 37.2519L29.6183 37.8626L28.7023 38.1679L27.7863 38.7786L26.8702 39.084L25.9542 39.3893L25.0382 39.6947L24.1221 40H22.9008L21.9847 40.3053H21.0687H19.8473ZM0 20.1527H2.74809V21.0687V21.9847L3.05344 22.9008V23.5115L3.35878 24.4275L3.66412 25.3435L3.96947 25.9542L4.27481 26.8702L4.58015 27.4809L4.8855 28.3969L5.19084 29.0076L5.80153 29.9237L6.10687 30.5344L6.71756 31.145L7.32824 31.7557L7.93893 32.3664L8.54962 32.9771L9.16031 33.2824L9.77099 33.8931L10.3817 34.5038L10.9924 34.8092L11.9084 35.4198L12.5191 35.7252L13.4351 36.0305L14.0458 36.3359L14.9618 36.6412L15.5725 36.9466H16.4885L17.4046 37.2519H18.3206H18.9313H19.8473V40.3053H18.9313H18.0153L16.7939 40H15.8779L14.9618 39.6947L14.0458 39.3893L13.1298 39.084L12.2137 38.7786L11.2977 38.1679L10.3817 37.8626L9.46565 37.2519L8.85496 36.9466L7.93893 36.3359L7.0229 35.7252L6.41221 35.1145L5.80153 34.5038L5.19084 33.5878L4.58015 32.9771L3.96947 32.3664L3.35878 31.4504L2.74809 30.5344L2.1374 29.9237L1.83206 29.0076L1.52672 28.0916L1.22137 27.1756L0.610687 26.2595V25.3435L0.305344 24.1221L0 23.2061V22.2901V21.0687V20.1527ZM19.8473 0V3.05344H18.9313H18.3206L17.4046 3.35878H16.4885L15.5725 3.66412H14.9618L14.0458 3.96947L13.4351 4.27481L12.5191 4.58015L11.9084 5.19084L10.9924 5.49618L10.3817 5.80153L9.77099 6.41221L9.16031 7.0229L8.54962 7.32824L7.93893 7.93893L7.32824 8.54962L6.71756 9.16031L6.10687 9.77099L5.80153 10.687L5.19084 11.2977L4.8855 11.9084L4.58015 12.8244L4.27481 13.4351L3.96947 14.3511L3.66412 14.9618L3.35878 15.8779L3.05344 16.7939V17.7099L2.74809 18.3206V19.2366V20.1527H0V19.2366V18.0153V17.0992L0.305344 16.1832L0.610687 15.2672V14.3511L1.22137 13.1298L1.52672 12.2137L1.83206 11.6031L2.1374 10.687L2.74809 9.77099L3.35878 8.85496L3.96947 8.24427L4.58015 7.32824L5.19084 6.71756L5.80153 6.10687L6.41221 5.19084L7.0229 4.58015L7.93893 3.96947L8.85496 3.35878L9.46565 3.05344L10.3817 2.44275L11.2977 2.1374L12.2137 1.52672L13.1298 1.22137L14.0458 0.916031L14.9618 0.610687H15.8779L16.7939 0.305344H18.0153L18.9313 0H19.8473Z" fill="#DB2C32"/>
<path fill-rule="evenodd" clip-rule="evenodd" d="M22.2901 25.0382C22.2901 24.4275 22.5954 23.8168 23.2061 23.8168C25.0382 23.8168 25.3435 24.7328 28.7023 22.5954C32.0611 20.7634 32.0611 23.8168 31.4504 25.0382C31.1451 26.2595 27.4809 29.9237 24.4275 28.3969C23.2061 27.7863 22.2901 26.5649 22.2901 25.0382Z" fill="#DB2C32" stroke="#DB2C32" stroke-width="0.900032"/>
<path fill-rule="evenodd" clip-rule="evenodd" d="M16.1832 38.4733C7.63359 36.9466 1.22137 29.313 1.22137 20.1527C1.22137 19.8473 1.22137 19.8473 1.22137 19.542C1.52672 18.9313 2.13741 18.626 2.74809 18.3206C3.66412 17.7099 4.8855 17.4046 5.80153 18.3206C7.0229 19.8473 3.66412 22.9008 6.10687 23.8168C8.85496 24.7328 9.77099 21.6794 10.3817 18.9313C10.9924 16.1832 14.0458 14.9618 15.2672 15.8779C16.7939 16.4885 17.0992 18.626 14.3511 21.9847C11.2977 25.0382 15.2672 23.8168 15.8779 26.2595C16.7939 28.3969 14.3511 30.8397 14.6565 32.3664C14.9618 33.2824 15.2672 33.8931 15.5725 34.1985C17.7099 35.7252 18.3206 37.5572 16.1832 38.4733Z" fill="#DB2C32" stroke="#DB2C32" stroke-width="0.900032"/>
<path fill-rule="evenodd" clip-rule="evenodd" d="M27.1756 3.05344C32.6718 5.49618 36.6413 10.3817 38.168 16.1832C35.7252 16.4886 32.3665 16.4886 30.8397 15.2672C28.397 13.1298 29.0077 9.77099 26.5649 13.7405C24.1222 17.7099 21.0687 16.1832 20.4581 13.4351C19.542 9.16031 22.5955 9.46565 24.1222 8.85496C25.0382 8.54962 25.9542 7.63359 26.2596 5.80153C26.2596 4.8855 26.5649 3.96947 27.1756 3.05344Z" fill="#DB2C32" stroke="#DB2C32" stroke-width="0.900032"/>
</svg>
